<svg id="Layer_1" data-name="Layer 1" xmlns="http://www.w3.org/2000/svg" viewBox="0 0 425.2 205"><defs><style>.cls-1{fill:#fff;}</style></defs><title>FrenchGenealogies</title><path class="cls-1" d="M.76,148.59V.79H426v205H.76V150.17l5.67.72,2.27,7.9,1-.18v-4.23l5.36-.29,6,1-1.41,3.14,1.06-.36,1.9,4.86.25-4.4,1.23,1.88.55-.24-.91-4.31h2.1l5.28,1.53-2.62,4.58.32.21,2.38-2.27v2.82c3-1,3.56-3.05,2.42-5.38l8.58-4.75,9.46,5.28-2.49,4.13,1.93-.69,1.51,8.54c.44-2.6.93-5.56,1.43-8.53l.39.16-.95-5.58,5.07,1.39c2.48-1.32,2,1,2.14,2.09.24,2.65.23,5.31.33,8l5.8-.4-.21,3.48,4.69-2c-.23,2.16-.43,4.09-.64,6-2.53-1.09-5-2.2-7.32,2.37l4.42-2.92v3.78l.9.36,1.89-3.7L72,173q-.9,7-1.81,14.12l.29-.05L73,177l.71.26-1.28-4.44c2.17-1.35,2.69.56,3.38,1.95s1.11,2.62,1.9,4.51l-1.25-12.86,4.4,1.29c-.84-1.83-1.09-3.55-1.92-3.94-2.87-1.37-1-2.41,0-3.59l.74.87,1.77,4.5L83,161.47l.43,4.93c.84-6.48.86-6.73,7-6.1,5,.5,4.52,4.29,3.52,7.85l2.07-.29v-8.09l3.09-2.45,3.4-1.08,1.33-.15c.68,2.12,1.17,3.62,1.65,5.12l.73-.1V150.59l1,0L110,161.09l1.16-.37c-.62-1.66-1.23-3.32-1.82-4.94l12.65,6c-.7,2.12-1.32,4-2,5.95l2.51-1.7c-.38,3-.72,5.57-1,8.16l1,.1c.57-3.37,1.15-6.74,1.85-10.82l1.88,5.62.56-.23c-.38-2.27-.76-4.53-1.14-6.83l10.44-.71c-.06,1.15-.12,2.19-.21,3.83l1.8-3,.47,10.46.79,0v-8.3l.91,0c.14,1.55.27,3.1.48,5.5,1.06-1.68,1.94-2.86,2.6-4.16s1.14-2.82,1.69-4.24l-.13.15c.2.76.75,1.66.55,2.27-1.38,4.16-2.91,8.27-4.39,12.39l.5.19,2.13-2.56v4.51l1,.19c.64-2.81,1.29-5.62,1.93-8.44.71,3.41,4,6.84-.17,10l2.13-1.1a8.89,8.89,0,0,1-1.91,4.59c-1.56,1.93-1.64,1.86.27,3.43l4.71-9.66,1.56.63c-.58,2.42-1.06,4.87-1.79,7.24-.23.76-1.11,1.3-1.69,2l.44.47,3-2.6a31.88,31.88,0,0,1,1.58,4.28c.37,1.74.41,3.56.69,6.25,1.9-2.45-3.36-6.14,1.49-6.09q-1.18-4.49-2.63-9.86a12.85,12.85,0,0,1,1.61.1c.35.1.69.25,1,.38l2.88,1.67c.72-1.91,1.06-1.91,2.53-.38a26.65,26.65,0,0,0,2.95,2.32l.9-1.54a45.87,45.87,0,0,1-5.14-3,7.07,7.07,0,0,1-1.91-2.88c-.18-.41.27-1.14.47-1.91l2.28.65c.13-1.41-.16-3.88.49-4.19,2.46-1.19,4,.37,4.59,3,.43,1.93.76,3.9,1.14,5.85l.72.06V163.76l.74,0,1.49,3.71.65-.23-2-7.22,7.77-1.12,1.91.29-2.54,5.4,2.88-.49-2.56,3.09.75.48c.85-1.55,1.7-3.11,2.92-5.32-.76,5.76-3.33,11.48,4.87,14.79-5.18-3.75-5.9-7.73-3.78-12.68l1.18,2.54.41-.15c-.31-1.42-.63-2.85-.95-4.27l.75-.36q1.48,3.19,3,6.39l.79-.42-4.83-9.91,6.86-4.77-.38,5.85.3.08,2-7,.77.21c.2,3,.41,6,.61,9l.73-.05v-11l13.06,7c-.48,3.09-1,6.29-1.62,10.45l3.14-6.09c.56,1.9.85,2.87,1.13,3.84l.68-.12v-4.7l3.8,3.82.33-.38L209,157.61l10.51-2-1.58,5.7,1.15.3c.29-1.06.59-2.12,1-3.53.61,1.31,1,2.12,1.61,3.48.56-1.78.9-2.87,1.46-4.69l1.43,4.56.83-.35L223,155.21l13.09-2.3c-1.47,4-2.71,7.32-4,10.69l.46.21,2.83-4.76v10.47l.56,0q.45-5.78.92-11.59l3.36,4.08.49-.38c-1.16-2.2-2.32-4.41-3.95-7.49l4.49.93,1.61.66c1.7,4.61,6.25,3.51,9.65,5.3-.84,2-1.68,4.11-2.58,6.33l3.24-2.41c-.46,3.26-.85,6-1.23,8.7l.86.15.37-3.32h1.12q.44,2.69.86,5.38l1-.27a44.8,44.8,0,0,1-1.63-6.45A35.6,35.6,0,0,1,255,163l.83.18q.87,2.63,1.73,5.23l.73-.26c-.49-2.35-1-4.7-1.54-7.44h13.24a40.8,40.8,0,0,0-2.37,4.29,35.35,35.35,0,0,0-1.15,4.39l.53.13c1.41-2.92,2.82-5.84,4.56-9.47,0,2.79,0,4.52,0,6.25s1,4.39.14,5.51c-2.62,3.53-1.18,6.49.52,9.68-.84-3.71-1.35-7.37.88-10.72.08-.12-.22-.47-.24-.73-.11-2.3-.2-4.6-.3-6.91l1.31-.09.44,4.91h2.16a24,24,0,0,1-.14,2.4c-.21,1.49-.5,3-.76,4.45l.6.43,1-2.42.78.59v4.47l1,.2,2.7-9,1.23.11c.16,3.06.32,6.11.48,9l.87-.15.45.76-5,5.88c2.22,2.66,3,.65,3.94-1.18,1.24-2.44,2.55-4.84,3.84-7.26l1.05.54-1.29,4.41.7.22,2.49-7.65c1,5.55-1.87,9.24-4.94,13.11l4.19-3.12-.13,2.49a7.33,7.33,0,0,1,1.24-.55c.17,0,.4.19-.26-.16l2.81,12.93,1.32-.38A57.09,57.09,0,0,1,292.1,191c-.21-1,.74-2.29,1.07-3.17-.69-2.9-1.43-6.05-2.25-9.51,4.35.66,1.19,8.57,7.45,6.48l-1.23-6,6.94,4,.81-1.63c-2-.94-4.13-1.75-6.07-2.85a6.83,6.83,0,0,1-2.38-2.48c-.27-.46.24-1.42.42-2.25l3.09.38-.93-.71c.58-1.19,1-3.2,1.79-3.42,2.92-.78,4.69,1,5.37,3.94.39,1.68.57,3.42.84,5.13l1.14-.08c-.29-3.87-.57-7.73-.86-11.67l1.85.37c-.37-1.85-.68-3.43-1-5l.78-.12,2.5,6.63.71-.28L309.07,159l11.58-.58-3.85,6.86,1.27,1.09,4.47-4.36c-2,5-1.18,10.12-.86,15.38l1.61-3.26,3.2,2c-4.18-3.29-5.28-7.41-2.83-12.85l2.9,6.77.51-.16-2.5-8.25.92-.41,3.53,6.92.93-.56-5.87-10.43,8.26-4.07c-.09,1.67-.17,3.06-.3,5.46l3.16-8.3c.23,1.88.31,2.59.45,3.78q1.29-2.88,1.89-4.24l15.22,6.84-1.88,9.73.48.06,2.77-4.51,3.61,3.73.27-.42-1.95-4.73.7-.41,3.5,2.84.44-.46-3.94-5.76,12.75-2-2.8,6.18,1,.62,2.62-4.3v9.06l.41,0,2.29-9.61c1.68,2.14,3.26,4.14,4.83,6.15l.58-.51-5.4-8,3.39-.6-.66-1.8-.11.07h6l0,.36-2.44.68.17.78,8.67-1.85c.07.92.12,1.64.17,2.27l4.28-2.12-4.82,7.48,1.15.66,3.74-5.49v13.86l1.18,0V154.33l5,6.34.43-.45L394.28,152l.7-.48,2.43,1.31L395.36,148l25.1-1.4-.12-1.49H396.72V129.35l-.47.12-4.95,16H339.57c-1.59-6.64-1.94-12.43,3.16-17.31l-1.13-.51-4.46,4.91-.9-.57c1.33-2.54,2.48-5.22,4-7.6s3.64-4.73,5.49-7.08l-.65-.68-8.95,7.56c-5.65-11.4-5.65-11.4-8.21-12.44,4.61,5.62,7,16.52,5,24.46l-7.26-4.64-.71,1c6.24,1.5,4.17,8.51,8,11.61l-.48.85H292.69l9.5-11.75-2.26-.23c1.62-3.77,3.16-7.33,4.69-10.88l6.66-7.68c3.47-2.32,6.81.86,10.18.47l-6.31-4.52L317,107.5l6.48-13L322.37,94q-2.33,4.4-4.66,8.78l-4.22,5c-1.39.23-2.77.47-4.15.68a54.9,54.9,0,0,0-6.43,1.06c-1.29.37-2.4,1.43-4,2.44a79.41,79.41,0,0,1,18.16-31.16A78.56,78.56,0,0,0,296,107.14c-2-10.8-.52-21.34.17-31.87l-.92,0c-.81,5.2-1.63,10.41-2.5,16l-1.25-2,.1.11c-.49-4.25-2.65-8.56.42-12.68q2.64-4.32,5.26-8.65c-.57-.25-1.47-.87-1.67-.68a63,63,0,0,0-5.95,6.06c-2.8,3.43-4.16,7-2.85,12,1.61,6.14,1.83,12.67,2.69,19.36l-3.22-.87-1.36-1.18a13,13,0,0,1-4.74-7.62c-1-4.64-2.93-9.06-4.45-13.57l-.61.09c.56,4.16,1.12,8.32,1.76,13-2-1.84-3.59-3.35-5.2-4.86L258.56,67l-1.15.73L270.8,90.7c4.58,5.52,9.29,11,9.43,18.94a2.05,2.05,0,0,0,.13.37c1.13,4.06,2.26,8.12,3.62,13l-13-15.53-.89.79c3.19,4.18,6.5,8.26,9.5,12.58.93,1.34,1,3.32,1.69,5.72,5.23,2.3,5.23,2.3,4.74,10.71-2.21-3.49-.42-9.66-6-9.8l3.48,6.86L270,136.49l.12.87,3.78-.57.44.63-2,1.14c8.53-3,10.73-2.08,14.26,7-7.15-.78-13.76-1.52-20.36-2.2a7.39,7.39,0,0,0-2.11.31,27.27,27.27,0,0,1-5,1c-2.58,0-5.54-1.31-7.65-.37-4.53,2-8.65-.42-12.4.33l-2-5.82c-1.6,6.94-2.32,7.42-8.55,7.32-6.62-.11-13.24.18-19.86.24-4.69.05-9.39,0-13.78,0-1.45-6.73-1.79-12.38,2.49-17.37l-1-.43-3.62,4.55c0-2.14.82-3.75,1.22-5.48a12.29,12.29,0,0,0-.22-3.6c-1.56.47-2.44.14-3.12-1.72-1.29-3.54-3-6.9-4.56-10.33a112.06,112.06,0,0,0,3.36,13.13c.22.72,1.1,1.21,1.68,1.81l-2.21,9.65-5-3.68c1.69,4,3.47,8.14,5.52,13h-34l11.77-17-3.7.59c.39-2,.73-3.8,1.08-5.58l5.65-6.68,2.56-3,6.5,1.56L174,110.79l3.81-6.16L177,104l-7.61,7.44a4.76,4.76,0,0,0-.53-.19c.32-3.45-1.7-2.59-3.33-1.83a38,38,0,0,0-4.42,2.81c.28-6.41,4.13-10.82,5.84-16.13s5.93-9.53,9.06-14.24l-.84-.66L163.89,96c-1-3.66-2.84-5.61-6.53-4.67.35-5.22.66-10,1-14.72l-.74,0c-.65,4.82-1.3,9.64-2,15l-2.1-5.11.12.14c.46-3,.93-6,1.39-9l5.36-9.34-1.05-.78L156.07,71l-2.71,2.7c1-5.81,1.78-10.73,2.6-15.65l-.43-.08-1.33,5-.58-.13-.24-3.47c.69-2.82,1.39-5.64,2.08-8.46l.39.05c.07,1.49.13,3,.2,4.46h1.09V43.27a43.35,43.35,0,0,1,.05-5.1c.67-5.45,1.93-10.88,2.11-16.34.15-4.47-.91-9-1.46-13.62-2.93,10.37,1.22,21.45-2.65,31.63l-1.26.55-7.31-13.9-.53.19q2.63,6.57,5.26,13.15l2.21,3.78-.09,15.83q-1,8.43-2.1,16.86c-.93,1.18-1.87,2.35-2.91,3.65.54.49,1.34.84,1.4,1.3,1,7.48,1.88,15,2.67,22.46.06.5-.88,1.12-1.35,1.69l-2.75-1.26,0-.08-7.68-21.47c.5,4,1,7.9,1.51,12l-2.14.31c1.65,3.66,3.2,7.08,4.75,10.5l-1.21.88-6-6.88c3.31,8.06,9.63,14.37,9.93,23.69-5-10.47-15.44-17-18.52-28.88.54,3.72,1.19,7.45,2.9,10.52,3.09,5.56,6.93,10.67,10.23,16.12,1.14,1.87,1.62,4.17,2.39,6.28l.56,1.57c.92,2.19,1.85,4.38,2.73,6.48l-9.24,2.07.23,1c2.42,0,5.38-.91,7.13.23,2.09,1.35,3.15,4.46,5.22,7.69-9.31.88-17.56,1.87-25.85,2.36-4.89.28-9.82-.38-14.74-.34-2.69,0-5,0-5.55-3.67l-.91,3.57H74.77c1.63-3.88,3.14-7.31,8.42-4.69L82.88,142l-6.5-1.66c1.69-3.85,3.17-7.74,5.07-11.39,1.32-2.53,3.45-4.59,4.81-7.1,1.65-3,2.89-6.33,4.3-9.52l-.47-.07-13.2,19-1.1-.65,8.68-16.91c-2,1.89-3.39,3.2-4.77,4.51l-.89-.69q2.44-4.42,4.87-8.87l-.42-.24-2.59,2.13,1-8.3c-1.21,2.62-1.65,5.39-2.68,7.91a69.74,69.74,0,0,1-4,7.45l-.76.76-2-.91c.18-3,.37-5.94.55-8.92.73-2,1.86-4,2.11-6.12.64-5.16-1.84-9.84-2.56-14.81,0-.1-.41-.13-1.14-.33.75,4.51,1.45,8.79,2.16,13.07l-.53-.19-.39,5.09-.81,1.8c-.38-.48-1-.91-1.1-1.44-.49-2.48-.84-5-1.42-8.65v9.8l-4.63,4.45-8-10.16a15.54,15.54,0,0,0,2.9,5.62c4.08,5.62,4.08,5.62.27,11.22l-2.56,3a10.83,10.83,0,0,0,.86,3c1.59,2.52,3.37,4.9,5.08,7.34l2.23,5h-2.8l8.3,12.13H45.85l3.85-9.64-4.59,3.78v-7.42l-.83,0-1.21,4.38-1.82-3.14c.43,3.86.87,7.85,1.37,12.38H9.81L6.93,137.9l-.61,0v11.17Zm260-33.35,12.59,6.89c-2.9-4.64-7-7.11-11.84-8.49l-9-3.33L252,111.6Zm-191-34.9c3-8,3-9.08-1.12-20.3C69,67,69.36,73.46,69.74,80.34ZM136,88.81l1-.52L128.32,71C130.68,77,131.55,83.92,136,88.81Zm199.84,76.68c-2.87,7.21-.5,14.06,0,20.93ZM175.62,60.21c-6-3.22-12.68-.77-13.1,4.86C166.3,61.55,170,58.16,175.62,60.21Zm140.73-1.54c-4.36-2.43-8.91-.11-13.47,2.21Zm-194.2,52.06-.85,1.46,10.47,6.32.41-.74ZM90.27,96.53,89.51,96,84.2,106.63l1,.52Q87.74,101.84,90.27,96.53Z" transform="translate(-0.76 -0.79)"/><path d="M241.32,155l-4.49-.93c1.63,3.08,2.79,5.29,3.95,7.49l-.49.38-3.36-4.08q-.47,5.82-.92,11.59l-.56,0V159.05l-2.83,4.76-.46-.21c1.24-3.37,2.48-6.73,4-10.69L223,155.21l2.34,5.88-.83.35-1.43-4.56c-.56,1.82-.9,2.91-1.46,4.69-.62-1.36-1-2.17-1.61-3.48-.38,1.41-.68,2.47-1,3.53l-1.15-.3,1.58-5.7-10.51,2,4.21,6.73-.33.38-3.8-3.82v4.7l-.68.12c-.28-1-.57-1.94-1.13-3.84L204.11,168c.64-4.16,1.14-7.36,1.62-10.45l-13.06-7v11l-.73.05c-.2-3-.41-6-.61-9l-.77-.21-2,7-.3-.08.38-5.85-.23-1.67c-1.2-3.49-4-3-6.61-2.89-4,.22-8,.39-12,.66-2.77.19-5.53.51-8.29.78,5.18,5.22,11.05,7.13,17.83,5.42l0-.09L169,158l-.11.55,8.21.44-.08-.09L169.22,160l2,7.22-.65.23-1.49-3.71-.74,0v15.88l-.72-.06c-.38-2-.71-3.92-1.14-5.85-.58-2.59-2.13-4.15-4.59-3-.65.31-.36,2.78-.49,4.19l-2.28-.65c-.2.77-.65,1.5-.47,1.91a7.07,7.07,0,0,0,1.91,2.88,45.87,45.87,0,0,0,5.14,3l-.9,1.54a26.65,26.65,0,0,1-2.95-2.32c-1.47-1.53-1.81-1.53-2.53.38-.58-1.54-1.23-3.05-1.71-4.62s-.84-3.41-1.25-5.11l-1.67.46c.58,2.53,1.16,5.07,1.75,7.6-.35-.13-.69-.28-1-.38a12.85,12.85,0,0,0-1.61-.1q1.44,5.38,2.63,9.86c-4.85-.05.41,3.64-1.49,6.09-.28-2.69-.32-4.51-.69-6.25a31.88,31.88,0,0,0-1.58-4.28l-3,2.6-.44-.47c.58-.65,1.46-1.19,1.69-2,.73-2.37,1.21-4.82,1.79-7.24l-1.56-.63-4.71,9.66c-1.91-1.57-1.83-1.5-.27-3.43a8.89,8.89,0,0,0,1.91-4.59l-2.13,1.1c4.19-3.13.88-6.56.17-10-.64,2.82-1.29,5.63-1.93,8.44l-1-.19v-4.51l-2.13,2.56-.5-.19c1.48-4.12,3-8.23,4.39-12.39.2-.61-.35-1.51-.55-2.27,1.19-2.19,3.91-3.81,2.39-7-7.82,4.23-8.41,5.19-5.66,9l3.4-2.14c-.55,1.42-1,2.89-1.69,4.24s-1.54,2.48-2.6,4.16c-.21-2.4-.34-3.95-.48-5.5l-.91,0v8.3l-.79,0-.47-10.46-1.8,3c.09-1.64.15-2.68.21-3.83l-10.44.71c.38,2.3.76,4.56,1.14,6.83l-.56.23-1.88-5.62c-.7,4.08-1.28,7.45-1.85,10.82l-1-.1c.33-2.59.67-5.18,1-8.16l-2.51,1.7c.64-1.92,1.26-3.83,2-5.95l-12.65-6c.59,1.62,1.2,3.28,1.82,4.94l-1.16.37-2.72-10.47-1,0v10.52l-.73.1c-.48-1.5-1-3-1.65-5.12l-1.33.15,2.88-5.61c-4,0-7.54-.53-10.89.15s-6.56,2.83-10.35,1.68c-.41-.12-1.37,1.7-2.07,2.63l-.84.59-4.94-.91,2.58,5.42c-.91,1.18-2.83,2.22,0,3.59.83.39,1.08,2.11,1.92,3.94l-4.4-1.29,1.25,12.86c-.79-1.89-1.27-3.24-1.9-4.51s-1.21-3.3-3.38-1.95A.5.5,0,0,0,72,173l-1.44,1.15.11.11.64-6-4.69,2,.21-3.48-5.8.4c-.1-2.65-.09-5.31-.33-8-.1-1.13.34-3.41-2.14-2.09l8-4.38-.23-1.23H47.19l-.29,1.23,6.56,3,.95,5.58-.39-.16c-.5,3-1,5.93-1.43,8.53l-1.51-8.54-1.93.69,2.49-4.13-9.46-5.28-8.58,4.75c1.14,2.33.63,4.43-2.42,5.38v-2.82L28.8,162l-.32-.21,2.62-4.58-5.28-1.53-.12.11,13.35-2.41-.25-.86-28.26-2.35a11.69,11.69,0,0,0,4.06,2.48c.31.16.31,1,.46,1.54l0-.1-5.36.29v4.23l-1,.18-2.27-7.9-5.67-.72v-1.58l5.56.53V138l.61,0,2.88,10.81H42.62c-.5-4.53-.94-8.52-1.37-12.38l1.82,3.14,1.21-4.38.83,0v7.42l4.59-3.78-3.85,9.64H70.73l-8.3-12.13h2.8c-.85-1.88-1.54-3.42-2.23-5l4.75,6.17a33.05,33.05,0,0,0,.83-4.47,22.8,22.8,0,0,0-.43-3.82l2.17,3.13,1,11.79,1.1-.1a50.54,50.54,0,0,1-.31-6.49c.36-4.75,1-9.48,1.5-14.22l-.14,2.53,1.83-1V128l1.11.21c.77-3.64,1.54-7.28,2.37-11.24l-3.28,2.49-.61-1.85a69.74,69.74,0,0,0,4-7.45c1-2.52,1.47-5.29,2.68-7.91l-1,8.3,2.59-2.13.42.24q-2.43,4.44-4.87,8.87l.89.69c1.38-1.31,2.76-2.62,4.77-4.51L75.79,130.6l1.1.65,13.2-19,.47.07c-1.41,3.19-2.65,6.48-4.3,9.52-1.36,2.51-3.49,4.57-4.81,7.1-1.9,3.65-3.38,7.54-5.07,11.39l6.5,1.66.31,1.36c-5.28-2.62-6.79.81-8.42,4.69H104.1l.91-3.57c.52,3.69,2.86,3.69,5.55,3.67,4.92,0,9.85.62,14.74.34,8.29-.49,16.54-1.48,25.85-2.36-2.07-3.23-3.13-6.34-5.22-7.69-1.75-1.14-4.71-.23-7.13-.23l-.23-1,9.24-2.07c-.88-2.1-1.81-4.29-2.73-6.48,1.1,1.27,2.48,2.39,3.22,3.86a24.54,24.54,0,0,1,1.38,5.15c.35-8.65.35-8.65-5.16-10.58-.77-2.11-1.25-4.41-2.39-6.28-3.3-5.45-7.14-10.56-10.23-16.12-1.71-3.07-2.36-6.8-2.9-10.52,3.08,11.89,13.56,18.41,18.52,28.88-.3-9.32-6.62-15.63-9.93-23.69l6,6.88,1.21-.88c-1.55-3.42-3.1-6.84-4.75-10.5l2.14-.31c-.52-4.05-1-7.94-1.51-12l7.68,21.47-3.17-1c.23,8.18,2,14.34,4.52,15.17-.27-2.13-.53-4.14-.79-6.16l2.47,3.72.93-.43-3.45-9c1,.88,2.75,1.62,2.94,2.67a114.59,114.59,0,0,1,1.72,14.3c.22,4.57-.22,9.17-.28,13.75a20.58,20.58,0,0,0,.53,3.36l1.35-.13c.24-5.71.69-11.42.64-17.14-.05-6.29,1.23-13.1-4.62-17.78.47-.57,1.41-1.19,1.35-1.69-.79-7.5-1.7-15-2.67-22.46-.06-.46-.86-.81-1.4-1.3,1-1.3,2-2.47,2.91-3.65l-.09-.1v5.55l3.69-4.2c-.46,3-.93,6-1.39,9-.48,1.23-1.42,2.48-1.36,3.67.25,5.1.77,10.2,1.26,15.28a6.87,6.87,0,0,0,.77,1.83,6.21,6.21,0,0,0,1.15-4.08c-.57-5.62-1.28-11.23-1.94-16.84l2.1,5.11c.73-5.31,1.38-10.13,2-15l.74,0c-.31,4.75-.62,9.5-1,14.72,3.69-.94,5.49,1,6.53,4.67l11.29-14.76.84.66c-3.13,4.71-7.37,9-9.06,14.24s-5.56,9.72-5.84,16.13a38,38,0,0,1,4.42-2.81c1.63-.76,3.65-1.62,3.33,1.83-2.19.66-5.74.69-6.33,2.1-2,4.68-2.92,9.85-4.18,14.85,0,.05,1,.38,1.58.58l-2.16,7.33A13.69,13.69,0,0,0,160.4,132c1.36-2.7,2.76-5.36,4.15-8-.35,1.78-.69,3.57-1.08,5.58l3.7-.59-11.77,17h34c-2.05-4.83-3.83-9-5.52-13l5,3.68c.69-3,1.45-6.33,2.2-9.65l2.65-2.89a12.29,12.29,0,0,1,.22,3.6c-.4,1.73-1.25,3.34-1.22,5.48l3.62-4.55,1,.43c-4.28,5-3.94,10.64-2.49,17.37,4.39,0,9.09,0,13.78,0,6.62-.06,13.24-.35,19.86-.24,6.23.1,6.95-.38,8.55-7.32l2,5.82c3.75-.75,7.87,1.67,12.4-.33,2.11-.94,5.07.41,7.65.37a27.27,27.27,0,0,0,5-1,7.39,7.39,0,0,1,2.11-.31c6.6.68,13.21,1.42,20.36,2.2-3.53-9.08-5.73-10-14.26-7l2-1.14-.44-.63-3.78.57-.12-.87,13.6-2.16-3.48-6.86c5.55.14,3.76,6.31,6,9.8.49-8.41.49-8.41-4.74-10.71-.67-2.4-.76-4.38-1.69-5.72-3-4.32-6.31-8.4-9.5-12.58l.89-.79L284,123c-1.36-4.87-2.49-8.93-3.62-13a2.05,2.05,0,0,1-.13-.37c-.14-8-4.85-13.42-9.43-18.94l.85-.94c1.61,1.51,3.22,3,5.2,4.86-.64-4.72-1.2-8.88-1.76-13l.61-.09c1.52,4.51,3.43,8.93,4.45,13.57a13,13,0,0,0,4.74,7.62c.16.91.33,1.82.49,2.72l-2.9-.52-1.8-3.1a64.22,64.22,0,0,0,2.25,13.76c.23.9,1.54,1.48,2.36,2.21l.65-.92q-1.72-6-3.47-12c.8,1.74,1.54,3.51,2.41,5.22s1.79,3.21,2.7,4.81l1.07-.56q-1.65-4.47-3.31-9c1,.88,2.63,1.56,3,2.68,2.39,7.53,2.62,15.34,2.16,23.2-.17,2.78,0,5.58,0,8.85.94-.65,1.32-.79,1.32-.93.3-9.85.58-19.7.78-29.55,0-.49-.61-1.09-1.06-1.48-1.72-1.47-3.49-2.87-5.24-4.29l3.22.87c-.86-6.69-1.08-13.22-2.69-19.36-1.31-5,.05-8.54,2.85-12a63,63,0,0,1,5.95-6.06c.2-.19,1.1.43,1.67.68a29.54,29.54,0,0,0-10,11.92l.76.7,4-4c-3.07,4.12-.91,8.43-.43,12.67l-2.14-3.81a47.22,47.22,0,0,0,.33,10.72q.56,5.1,1.13,10.21l1.68-.12c0-2.19.12-4.39,0-6.56-.26-3.52-.7-7-1.06-10.54l1.25,2c.87-5.56,1.69-10.77,2.5-16l.92,0c-.69,10.53-2.16,21.07-.17,31.87a78.56,78.56,0,0,1,21.1-26.32A79.41,79.41,0,0,0,298.91,112c1.6-1,2.71-2.07,4-2.44a54.9,54.9,0,0,1,6.43-1.06c1.38-.21,2.76-.45,4.14-.68l-7.3,7.65,2.32-3.86c-4.38-2-7.72-.72-9.3,3.52a83.42,83.42,0,0,0-2.86,9c-.36,1.45-.06,3.07-.06,4.77,2.31-3.19,4.31-5.95,6.32-8.7L295.13,135l1.09.6c1.07-2.12,2-4.35,3.26-6.34,1.57-2.48,3.41-4.77,5.14-7.13-1.53,3.55-3.07,7.11-4.69,10.88l2.26.23L292.69,145h39.83l.48-.85c-3.81-3.1-1.74-10.11-8-11.61l.71-1,7.26,4.64c2-7.94-.42-18.84-5-24.46,2.56,1,2.56,1,8.21,12.44l8.95-7.56.65.68c-1.85,2.35-3.86,4.58-5.49,7.08s-2.71,5.06-4,7.6l.9.57,4.46-4.91,1.13.51c-5.1,4.88-4.75,10.67-3.16,17.31H391.3l4.95-16,.47-.12v15.79h23.62l.12,1.49-25.1,1.4,2.05,4.79L395,151.51l-.7.48,4.94,8.23-.43.45-5-6.34v14.24l-1.18,0V154.69l-3.74,5.49-1.15-.66,4.82-7.48-4.28,2.12c-.05-.63-.1-1.35-.17-2.27l-8.67,1.85-.17-.78,2.44-.68,0-.36h-6c1.32-.29,2.62-.65,3.93-.85,3.94-.6,7.91-1,11.25-3.69-6.39.09-12.63.83-18.88,1.53-3.62.4-7.4,1.52-10.86.86-3.66-.69-6.76-.78-8.71,1l-8.1-1.53-.46,1.75c2.49.74,5,2.22,7.45,2.07,6.79-.39,13.55-1.55,20.33-2.2,1.35-.13,2.77.66,4.16,1l.66,1.8-3.39.6,5.4,8-.58.51c-1.57-2-3.15-4-4.83-6.15l-2.29,9.61-.41,0v-9.06l-2.62,4.3-1-.62,2.8-6.18-12.75,2,3.94,5.76-.44.46-3.5-2.84-.7.41L358,165.2l-.27.42-3.61-3.73-2.77,4.51-.48-.06,1.88-9.73-15.22-6.84q-.6,1.36-1.89,4.24c-.14-1.19-.22-1.9-.45-3.78l-3.16,8.3c.13-2.4.21-3.79.3-5.46l-8.26,4.07L330,167.57l-.93.56-3.53-6.92-.92.41,2.5,8.25-.51.16-2.9-6.77c-2.45,5.44-1.35,9.56,2.83,12.85l-3.2-2-1.61,3.26c-.32-5.26-1.16-10.39.86-15.38l-4.47,4.36-1.27-1.09,3.85-6.86-11.58.58,3.08,9.73-.71.28-2.5-6.63-.78.12c.31,1.57.62,3.15,1,5l-1.85-.37c.29,3.94.57,7.8.86,11.67l-1.14.08c-.27-1.71-.45-3.45-.84-5.13-.68-2.92-2.45-4.72-5.37-3.94-.82.22-1.21,2.23-1.79,3.42l.93.71-3.09-.38c-.18.83-.69,1.79-.42,2.25a6.83,6.83,0,0,0,2.38,2.48c1.94,1.1,4,1.91,6.07,2.85l-.81,1.63-6.94-4,1.23,6c-6.26,2.09-3.1-5.82-7.45-6.48.82,3.46,1.56,6.61,2.25,9.51-.33.88-1.28,2.16-1.07,3.17a57.09,57.09,0,0,0,2.44,7.09l-1.32.38-2.81-12.93c.66.35.43.12.26.16a7.33,7.33,0,0,0-1.24.55l.13-2.49-4.19,3.12c3.07-3.87,6-7.56,4.94-13.11l-2.49,7.65-.7-.22,1.29-4.41-1.05-.54c-1.29,2.42-2.6,4.82-3.84,7.26-.92,1.83-1.72,3.84-3.94,1.18l5-5.88-.45-.76-.87.15c-.16-2.91-.32-6-.48-9l-1.23-.11-2.7,9-1-.2v-4.47l-.78-.59-1,2.42-.6-.43c.26-1.49.55-3,.76-4.45a24,24,0,0,0,.14-2.4h-2.16l-.44-4.91-1.31.09c.1,2.31.19,4.61.3,6.91,0,.26.32.61.24.73-2.23,3.35-1.72,7-.88,10.72-1.7-3.19-3.14-6.15-.52-9.68.82-1.12-.09-3.63-.14-5.51s0-3.46,0-6.25c-1.74,3.63-3.15,6.55-4.56,9.47l-.53-.13a35.35,35.35,0,0,1,1.15-4.39,40.8,40.8,0,0,1,2.37-4.29H256.7c.57,2.74,1.05,5.09,1.54,7.44l-.73.26q-.86-2.61-1.73-5.23L255,163a35.6,35.6,0,0,0-.34,6.07,44.8,44.8,0,0,0,1.63,6.45l-1,.27q-.42-2.7-.86-5.38h-1.12l-.37,3.32-.86-.15c.38-2.72.77-5.44,1.23-8.7L250,167.32c.9-2.22,1.74-4.28,2.58-6.33-3.4-1.79-8-.69-9.65-5.3,3.5.45,7,1,10.5,1.34a80.39,80.39,0,0,0,12.18.68c1.43-.09,4.1-2.73,3.88-3.46-.78-2.7.51-2.1,1.88-1.94.84.09,1.69.13,2.53.2l.46-1.2c-1-.37-2.09-1.1-3.11-1-2.33.12-5.27,1.7-6.82.71a9.54,9.54,0,0,0-5.92-1.49c-2,0-3.9-1.63-5.88-1.74-4.28-.23-8.59,0-12.88.13a23.58,23.58,0,0,0-2.71.44Zm46.9,13.37-1,6.2,1.17.26c-.13-2.83,5-3.6,2.28-7.6l-2.58,1.28c.42-2.1,3.6-3.88.42-6.71a21,21,0,0,0-2.89,3.57,14.76,14.76,0,0,0-.83,3.91Zm-148.4-15.16.44-.88a7.82,7.82,0,0,0-2.52-1.34c-2.74-.28-6,3.3-8.2-1.25-.06-.12-1.13.41-1.74.45-1.45.09-2.91.07-4.36.08h-13.5l-.28,1.23c2,1.84,3.81,4.7,6.13,5.3,5,1.32,10.32,1.56,15.52,2.1,3.8.4,4.83-2.15,4.88-5.69Zm160.23-4.4-.14,1.16c8,7.8,23.34,6.8,32.26-1.16Zm-64.45,1.07c-.56-.85-.93-1.8-1.22-1.78q-6.1.54-12.18,1.31c-3.12.4-6.34,1.68-9.31,1.19-3.14-.51-5.79-.8-7.42,1l-6.8-1.38c3.83,5.46,8.88,3.84,13.58,3.34,3.83-.41,7.74-2.62,11.33-2.08A22.8,22.8,0,0,0,235.6,149.91ZM273.1,159c.84,1.2,1.58,3.31,2.56,3.45,2.65.38,7.19-6.11,6.59-9.31Zm-119.43,4.79-1.75-1.25c-.9.82-2.3,1.49-2.58,2.5a25.65,25.65,0,0,0-.4,5.65l1.61.28Zm7.89-67-1.48-.16-1.6,10.23C160.41,103.68,163.28,100.71,161.56,96.8Zm133.11,83.78,1.63-.78c-2.55-2.21,1.41-7.48-5.09-8.65C292.52,174.74,293.6,177.66,294.67,180.58ZM297.09,160,296,161c1,4.68,2,6,5.71,6.35C299.92,164.53,298.5,162.29,297.09,160Zm8.65-4-14.09-6C295.67,154.49,300.71,155.28,305.74,156.08ZM292.62,169l1.55-.26c0-2.09.08-4.19-.11-6.26,0-.21-1.65-.25-3.2-.46C291.57,164.83,292.1,166.91,292.62,169ZM322,155.94l-14.2.71C312.92,158.86,317.08,158.42,322,155.94Zm-162.61,5.12-1.7,1.15,3.5,6.48,1.53-.88Zm135.11-6.62c.46,4.73,1.78,5.81,7,5.7ZM155.68,169.89l.73-.08a25.39,25.39,0,0,0,.73-4.77c0-.71-1-1.41-1.58-2.12-.4.78-1.18,1.6-1.1,2.33A30.81,30.81,0,0,0,155.68,169.89Z" transform="translate(-0.76 -0.79)"/><path class="cls-1" d="M241.32,155,237,148.32a23.58,23.58,0,0,1,2.71-.44c4.29-.1,8.6-.36,12.88-.13,2,.11,3.92,1.75,5.88,1.74a9.54,9.54,0,0,1,5.92,1.49c1.55,1,4.49-.59,6.82-.71,1-.06,2.07.67,3.11,1l-.46,1.2c-.84-.07-1.69-.11-2.53-.2-1.37-.16-2.66-.76-1.88,1.94.22.73-2.45,3.37-3.88,3.46a80.39,80.39,0,0,1-12.18-.68c-3.51-.34-7-.89-10.5-1.34Z" transform="translate(-0.76 -0.79)"/><path d="M70.32,132.31l-2.17-3.12-3-6.07,1.48-.6-2.74-7.3-4.27,2.65c3.81-5.6,3.81-5.6-.27-11.22a15.54,15.54,0,0,1-2.9-5.62l8,10.16,4.63-4.45v-9.8c.58,3.66.93,6.17,1.42,8.65.1.53.72,1,1.1,1.44l-.69,12.46,1.15,0,.16-2.09,2,.92c-1.08,1.66-2.7,3.17-3.12,5C70.38,126.22,70.52,129.31,70.32,132.31Zm-.79-21.53-.94-.4c-.93,1.26-2.6,2.51-2.62,3.79,0,1.74,1.18,3.51,2.1,5.88C68.64,116.42,69.09,113.6,69.53,110.78Z" transform="translate(-0.76 -0.79)"/><path d="M153.47,59.43l.09-15.82,2.29,3c.92-4-1.54-5.83-3.93-7.66l-.57.92q-2.62-6.59-5.26-13.15l.53-.19,7.31,13.9,1.26-.55c3.87-10.18-.28-21.26,2.65-31.63.55,4.64,1.61,9.15,1.46,13.62-.18,5.46-1.44,10.89-2.11,16.34a43.35,43.35,0,0,0-.05,5.1V55.39h-1.09c-.07-1.48-.13-3-.2-4.46l-.39-.05c-.69,2.82-1.39,5.64-2.07,8.47Z" transform="translate(-0.76 -0.79)"/><path class="cls-1" d="M82.09,155.09c.7-.93,1.66-2.75,2.07-2.63,3.79,1.15,6.92-1,10.35-1.68s6.94-.15,10.89-.15l-2.88,5.61-3.4,1.08a33.47,33.47,0,0,1-5.81.88c-2.8,0-6,1.39-8.11-2.15C84.76,155.33,83.16,155.39,82.09,155.09Z" transform="translate(-0.76 -0.79)"/><path class="cls-1" d="M285.38,105.4c-.16-.9-.33-1.81-.49-2.72l1.36,1.18c1.75,1.42,3.52,2.82,5.24,4.29.45.39,1.07,1,1.06,1.48-.2,9.85-.48,19.7-.78,29.55,0,.14-.38.28-1.32.93,0-3.27-.14-6.07,0-8.85.46-7.86.23-15.67-2.16-23.2-.35-1.12-1.95-1.8-3-2.68Z" transform="translate(-0.76 -0.79)"/><path class="cls-1" d="M304.62,122.14c-1.73,2.36-3.57,4.65-5.14,7.13-1.26,2-2.19,4.22-3.26,6.34l-1.09-.6q3.74-7.41,7.46-14.82l3.59-4.74,7.3-7.65,4.23-5,1.71-.93c-.93,2.12-1.7,3.89-2.46,5.66-.61,1-1.21,1.94-1.81,2.91l-3.87,4Z" transform="translate(-0.76 -0.79)"/><path class="cls-1" d="M151.18,105.4c5.85,4.68,4.57,11.49,4.62,17.78,0,5.72-.4,11.43-.64,17.14l-1.35.13a20.58,20.58,0,0,1-.53-3.36c.06-4.58.5-9.18.28-13.75a114.59,114.59,0,0,0-1.72-14.3c-.19-1.05-1.92-1.79-2.94-2.66-.25-.58-.49-1.17-.74-1.75.08-.16.17-.33.27-.49Z" transform="translate(-0.76 -0.79)"/><path d="M188.4,151.81l.23,1.67-6.86,4.77,4.83,9.91-.79.42q-1.5-3.2-3-6.39l-.75.36c.32,1.42.64,2.85.95,4.27l-.41.15-1.18-2.54c-2.12,4.95-1.4,8.93,3.78,12.68-8.2-3.31-5.63-9-4.87-14.79-1.22,2.21-2.07,3.77-2.92,5.32l-.75-.48,2.56-3.09-2.88.49,2.54-5.4-1.91-.29.08.09,3.71-2.84-1.49-.43,0,.09Z" transform="translate(-0.76 -0.79)"/><path class="cls-1" d="M164.55,123.94c-1.39,2.68-2.79,5.34-4.15,8a13.69,13.69,0,0,1-2.62,4.16l2.16-7.33c1.87-3.54,3.73-7.1,5.64-10.63,1.23-2.26,2.55-4.47,3.82-6.71L177,104l.84.6L174,110.79l-3.84,6.47Z" transform="translate(-0.76 -0.79)"/><path class="cls-1" d="M65.15,123.12l3,6.07a22.57,22.57,0,0,1,.43,3.81,33.05,33.05,0,0,1-.83,4.47L63,131.3c-1.71-2.44-3.49-4.82-5.08-7.34a10.83,10.83,0,0,1-.86-3Z" transform="translate(-0.76 -0.79)"/><path class="cls-1" d="M169.4,111.47c-1.27,2.24-2.59,4.45-3.82,6.71-1.91,3.53-3.77,7.09-5.64,10.63-.55-.2-1.59-.53-1.58-.58,1.26-5,2.19-10.17,4.18-14.85.59-1.41,4.14-1.44,6.33-2.1A4.76,4.76,0,0,1,169.4,111.47Z" transform="translate(-0.76 -0.79)"/><path d="M82.09,155.09c1.07.3,2.67.24,3.11,1,2.12,3.54,5.31,2.11,8.11,2.15a33.47,33.47,0,0,0,5.81-.88L96,159.77v8.09l-2.07.29c1-3.56,1.43-7.35-3.52-7.85-6.14-.63-6.16-.38-7,6.1L83,161.47l-1.61,4.09-1.77-4.5c2.88.52,3.64-.49,2.2-3.25a9.83,9.83,0,0,1-.58-2.13Z" transform="translate(-0.76 -0.79)"/><path class="cls-1" d="M53.46,155.73l-6.56-3,.29-1.23H66.28l.23,1.23-8,4.38Z" transform="translate(-0.76 -0.79)"/><path class="cls-1" d="M65.15,123.12l-8.09-2.2,2.56-3,4.27-2.65,2.74,7.3Z" transform="translate(-0.76 -0.79)"/><path d="M271.65,89.76l-.85.94L257.41,67.77l1.15-.73Z" transform="translate(-0.76 -0.79)"/><path d="M151.37,76.3q1.06-8.43,2.1-16.86l-.08-.1c.07,1.15.15,2.3.23,3.46l.58.13,1.33-5L156,58c-.82,4.92-1.63,9.84-2.6,15.65l2.71-2.7-3.9,7-.89-1.76Z" transform="translate(-0.76 -0.79)"/><path d="M25.82,155.68h-2.1l.91,4.31-.55.24-1.23-1.88-.25,4.4-1.9-4.86-1.06.36,1.41-3.14-6-1,0,.1a15,15,0,0,1,13.34.68l-4.53-.75,1.83,1.67Z" transform="translate(-0.76 -0.79)"/><path class="cls-1" d="M70.32,132.31c.2-3,.06-6.09.72-9,.42-1.82,2-3.33,3.12-5l.76-.76c.2.61.4,1.23.61,1.85l-1.89,3.85c-.51,4.74-1.14,9.47-1.5,14.22a50.54,50.54,0,0,0,.31,6.49l-1.1.1Q70.84,138.2,70.32,132.31Z" transform="translate(-0.76 -0.79)"/><path class="cls-1" d="M149,112.12c.26,2,.52,4,.79,6.16-2.53-.83-4.29-7-4.52-15.17l3.17,1,0,.08c-.1.16-.19.33-.27.49C148.42,107.12,148.69,109.62,149,112.12Z" transform="translate(-0.76 -0.79)"/><path d="M72.4,105.23l.39-5.09.53.19c-.71-4.28-1.41-8.56-2.16-13.07.73.2,1.13.23,1.14.33.72,5,3.2,9.65,2.56,14.81-.25,2.1-1.38,4.09-2.11,6.12C72.63,107.43,72.52,106.33,72.4,105.23Z" transform="translate(-0.76 -0.79)"/><path d="M69.74,80.34C69.36,73.46,69,67,68.62,60,72.69,71.26,72.75,72.37,69.74,80.34Z" transform="translate(-0.76 -0.79)"/><path class="cls-1" d="M151.28,76.2l.89,1.76,3.9-7,3.21-3.52,1.05.78L155,77.55l-3.69,4.2Z" transform="translate(-0.76 -0.79)"/><path class="cls-1" d="M261.46,113.64c4.8,1.38,8.94,3.85,11.84,8.49l-12.59-6.89-1.46-1.35Z" transform="translate(-0.76 -0.79)"/><path class="cls-1" d="M292,76.67l-4,4-.76-.7a29.54,29.54,0,0,1,10-11.92Q294.63,72.35,292,76.67Z" transform="translate(-0.76 -0.79)"/><path d="M193.68,124.09,191,127c-.57-.6-1.45-1.09-1.67-1.81A112.06,112.06,0,0,1,186,112c1.54,3.43,3.27,6.79,4.56,10.33C191.24,124.23,192.12,124.56,193.68,124.09Z" transform="translate(-0.76 -0.79)"/><path d="M136,88.81C131.55,83.92,130.68,77,128.32,71L137,88.29Z" transform="translate(-0.76 -0.79)"/><path class="cls-1" d="M72.4,105.23c.12,1.1.23,2.2.35,3.29-.18,3-.37,6-.55,8.92,0,.69-.1,1.39-.15,2.08l-1.15,0L71.59,107Z" transform="translate(-0.76 -0.79)"/><path d="M335.85,165.49v20.93C335.35,179.55,333,172.7,335.85,165.49Z" transform="translate(-0.76 -0.79)"/><path class="cls-1" d="M81.25,155.68a9.83,9.83,0,0,0,.58,2.13c1.44,2.76.68,3.77-2.2,3.25l-.74-.87-2.58-5.42Z" transform="translate(-0.76 -0.79)"/><path d="M175.62,60.21c-5.61-2.05-9.32,1.34-13.1,4.86C162.94,59.44,169.59,57,175.62,60.21Z" transform="translate(-0.76 -0.79)"/><path class="cls-1" d="M156.43,180c-.59-2.53-1.17-5.07-1.75-7.6l1.67-.46c.41,1.7.75,3.44,1.25,5.11s1.13,3.08,1.71,4.62Z" transform="translate(-0.76 -0.79)"/><path d="M316.35,58.67l-13.47,2.21C307.44,58.56,312,56.24,316.35,58.67Z" transform="translate(-0.76 -0.79)"/><path d="M72,173a.5.5,0,0,1,.45-.17c.43,1.48.85,3,1.28,4.44L73,177l-2.54,10.06-.29.05Q71.06,180.06,72,173Z" transform="translate(-0.76 -0.79)"/><path d="M317,107.5c.76-1.77,1.53-3.54,2.46-5.66l-1.71.93Q320,98.39,322.37,94l1.07.54Z" transform="translate(-0.76 -0.79)"/><path d="M122.15,110.73l10,7-.41.74-10.47-6.32Z" transform="translate(-0.76 -0.79)"/><path class="cls-1" d="M144.52,127.08C150,129,150,129,149.68,137.66a24.54,24.54,0,0,0-1.38-5.15c-.74-1.47-2.12-2.59-3.22-3.86Z" transform="translate(-0.76 -0.79)"/><path d="M311.28,114.46l3.87-4,6.31,4.52C318.09,115.32,314.75,112.14,311.28,114.46Z" transform="translate(-0.76 -0.79)"/><path d="M70.53,174.15l-1.89,3.7-.9-.36v-3.78l-4.42,2.92c2.27-4.57,4.79-3.46,7.32-2.37Z" transform="translate(-0.76 -0.79)"/><path d="M170.2,117.26l3.84-6.47,5.22,5.08-6.5-1.56Z" transform="translate(-0.76 -0.79)"/><path d="M261.46,113.64l-2.21.25,1.46,1.35L252,111.6l.46-1.29Z" transform="translate(-0.76 -0.79)"/><path class="cls-1" d="M151.35,39.83l.57-.92c2.39,1.83,4.85,3.62,3.93,7.66l-2.29-3Z" transform="translate(-0.76 -0.79)"/><path d="M90.27,96.53q-2.53,5.31-5,10.62l-1-.52L89.51,96Z" transform="translate(-0.76 -0.79)"/><path class="cls-1" d="M139.82,153.24h-3.63c-.05,3.54-1.08,6.09-4.88,5.69-5.2-.54-10.49-.78-15.52-2.1-2.32-.6-4.11-3.46-6.13-5.3l.28-1.23h13.5c1.45,0,2.91,0,4.36-.08.61,0,1.68-.57,1.74-.45,2.22,4.55,5.46,1,8.2,1.25a7.82,7.82,0,0,1,2.52,1.34Z" transform="translate(-0.76 -0.79)"/><path class="cls-1" d="M300.05,148.84h32.12c-8.92,8-24.22,9-32.26,1.16Z" transform="translate(-0.76 -0.79)"/><path class="cls-1" d="M188.4,151.81l-9.07,4c-6.78,1.71-12.65-.2-17.83-5.42,2.76-.27,5.52-.59,8.29-.78,4-.27,8-.44,12-.66C184.43,148.78,187.2,148.32,188.4,151.81Z" transform="translate(-0.76 -0.79)"/><path class="cls-1" d="M375.81,151.85c-1.39-.37-2.81-1.16-4.16-1-6.78.65-13.54,1.81-20.33,2.2-2.44.15-5-1.33-7.45-2.07l.46-1.75,8.1,1.53c1.95-1.74,5.05-1.65,8.71-1,3.46.66,7.24-.46,10.86-.86,6.25-.7,12.49-1.44,18.88-1.53-3.34,2.65-7.31,3.09-11.25,3.69-1.31.2-2.61.56-3.93.85Z" transform="translate(-0.76 -0.79)"/><path class="cls-1" d="M235.6,149.91a22.8,22.8,0,0,1-12,1.55c-3.59-.54-7.5,1.67-11.33,2.08-4.7.5-9.75,2.12-13.58-3.34l6.8,1.38c1.63-1.75,4.28-1.46,7.42-1,3,.49,6.19-.79,9.31-1.19q6.08-.76,12.18-1.31C234.67,148.11,235,149.06,235.6,149.91Z" transform="translate(-0.76 -0.79)"/><path class="cls-1" d="M306.18,115.45l-3.59,4.74-6.31,8.7c0-1.7-.3-3.32.06-4.77a83.42,83.42,0,0,1,2.86-9c1.58-4.24,4.92-5.49,9.3-3.52Z" transform="translate(-0.76 -0.79)"/><path class="cls-1" d="M25.7,155.79l-1.83-1.67,4.53.75a15,15,0,0,0-13.34-.68c-.15-.53-.15-1.38-.46-1.54a11.69,11.69,0,0,1-4.06-2.48l28.26,2.35.25.86Z" transform="translate(-0.76 -0.79)"/><path class="cls-1" d="M291.47,89.24c.36,3.51.8,7,1.06,10.54.15,2.17,0,4.37,0,6.56l-1.68.12q-.57-5.11-1.13-10.21a47.22,47.22,0,0,1-.33-10.72l2.14,3.81Z" transform="translate(-0.76 -0.79)"/><path class="cls-1" d="M273.1,159l9.15-5.86c.6,3.2-3.94,9.69-6.59,9.31C274.68,162.35,273.94,160.24,273.1,159Z" transform="translate(-0.76 -0.79)"/><path class="cls-1" d="M144.52,161.3l-3.4,2.14c-2.75-3.85-2.16-4.81,5.66-9,1.52,3.24-1.2,4.86-2.39,7Z" transform="translate(-0.76 -0.79)"/><path class="cls-1" d="M153.46,86.4c.66,5.61,1.37,11.22,1.94,16.84a6.21,6.21,0,0,1-1.15,4.08,6.87,6.87,0,0,1-.77-1.83c-.49-5.08-1-10.18-1.26-15.28-.06-1.19.88-2.44,1.36-3.67Z" transform="translate(-0.76 -0.79)"/><path class="cls-1" d="M282.47,104.87q1.74,6,3.47,12l-.65.92c-.82-.73-2.13-1.31-2.36-2.21a64.22,64.22,0,0,1-2.25-13.76l1.8,3.1Z" transform="translate(-0.76 -0.79)"/><path class="cls-1" d="M73.64,123.29l1.89-3.85L78.81,117c-.83,4-1.6,7.6-2.37,11.24L75.33,128v-3.14l-1.83,1Z" transform="translate(-0.76 -0.79)"/><path class="cls-1" d="M288.22,168.4l-3.43.91a14.76,14.76,0,0,1,.83-3.91,21,21,0,0,1,2.89-3.57c3.18,2.83,0,4.61-.42,6.71Z" transform="translate(-0.76 -0.79)"/><path class="cls-1" d="M153.67,163.83,150.55,171l-1.61-.28a25.65,25.65,0,0,1,.4-5.65c.28-1,1.68-1.68,2.58-2.5Z" transform="translate(-0.76 -0.79)"/><path class="cls-1" d="M161.56,96.8c1.72,3.91-1.15,6.88-3.08,10.07l1.6-10.23Z" transform="translate(-0.76 -0.79)"/><path class="cls-1" d="M294.67,180.58c-1.07-2.92-2.15-5.84-3.46-9.43,6.5,1.17,2.54,6.44,5.09,8.65Z" transform="translate(-0.76 -0.79)"/><path class="cls-1" d="M297.09,160c1.41,2.25,2.83,4.49,4.58,7.27-3.74-.35-4.74-1.67-5.71-6.35Z" transform="translate(-0.76 -0.79)"/><path class="cls-1" d="M305.74,156.08c-5-.8-10.07-1.59-14.09-6Z" transform="translate(-0.76 -0.79)"/><path class="cls-1" d="M285.38,105.4l0,0q1.65,4.49,3.31,9l-1.07.56c-.91-1.6-1.87-3.17-2.7-4.81s-1.61-3.48-2.41-5.22h0Z" transform="translate(-0.76 -0.79)"/><path class="cls-1" d="M149,112.12c-.26-2.5-.53-5-.79-7.49.25.58.49,1.17.74,1.75l3.45,9-.93.43Z" transform="translate(-0.76 -0.79)"/><path class="cls-1" d="M292.62,169c-.52-2.09-1.05-4.17-1.76-7,1.55.21,3.18.25,3.2.46.19,2.07.11,4.17.11,6.26Z" transform="translate(-0.76 -0.79)"/><path class="cls-1" d="M288.09,168.54l2.58-1.28c2.7,4-2.41,4.77-2.28,7.6l-1.17-.26c.33-2.06.67-4.13,1-6.2Z" transform="translate(-0.76 -0.79)"/><path class="cls-1" d="M179.29,155.69l1.49.43L177.07,159l-8.21-.44L169,158Z" transform="translate(-0.76 -0.79)"/><path class="cls-1" d="M322,155.94c-4.92,2.48-9.08,2.92-14.2.71Z" transform="translate(-0.76 -0.79)"/><path class="cls-1" d="M159.39,161.06l3.33,6.75-1.53.88-3.5-6.48Z" transform="translate(-0.76 -0.79)"/><path class="cls-1" d="M294.5,154.44l7,5.7C296.28,160.25,295,159.17,294.5,154.44Z" transform="translate(-0.76 -0.79)"/><path class="cls-1" d="M155.68,169.89a30.81,30.81,0,0,1-1.22-4.64c-.08-.73.7-1.55,1.1-2.33.56.71,1.57,1.41,1.58,2.12a25.39,25.39,0,0,1-.73,4.77Z" transform="translate(-0.76 -0.79)"/><path class="cls-1" d="M69.53,110.78c-.44,2.82-.89,5.64-1.46,9.27-.92-2.37-2.14-4.14-2.1-5.88,0-1.28,1.69-2.53,2.62-3.79Z" transform="translate(-0.76 -0.79)"/></svg>