<?xml version="1.0" encoding="utf-8"?>
<!-- Generator: Adobe Illustrator 22.0.1, SVG Export Plug-In . SVG Version: 6.00 Build 0)  -->
<svg version="1.1" xmlns="http://www.w3.org/2000/svg" xmlns:xlink="http://www.w3.org/1999/xlink" x="0px" y="0px"
	 viewBox="0 0 425.2 425.2" style="enable-background:new 0 0 425.2 425.2;" xml:space="preserve">
<style type="text/css">
	.st0{fill:#FFD600;}
	.st1{fill:#FFFFFF;}
	.st2{fill:#0094C6;}
	.st3{fill:#109C52;}
	.st4{fill:#84006B;}
	.st5{fill:#FF0000;}
</style>
<g id="Layer_1">
	<g>
		<rect x="85.5" y="0.5" class="st0" width="84" height="84"/>
		<path class="st1" d="M169,1v83H86V1H169 M170,0H85v85h85V0L170,0z"/>
	</g>
	<g>
		<rect x="0.5" y="85.5" class="st0" width="84" height="84"/>
		<path class="st1" d="M84,86v83H1V86H84 M85,85H0v85h85V85L85,85z"/>
	</g>
	<g>
		<rect x="340.5" y="170.5" class="st0" width="84" height="84"/>
		<path class="st1" d="M424,171v83h-83v-83H424 M425,170h-85v85h85V170L425,170z"/>
	</g>
	<g>
		<rect x="170.5" y="340.5" class="st0" width="84" height="84"/>
		<path class="st1" d="M254,341v83h-83v-83H254 M255,340h-85v85h85V340L255,340z"/>
	</g>
	<g>
		<rect x="255.5" y="255.5" class="st0" width="84" height="84"/>
		<path class="st1" d="M339,256v83h-83v-83H339 M340,255h-85v85h85V255L340,255z"/>
	</g>
	<g>
		<rect x="0.5" y="0.5" class="st2" width="84" height="84"/>
		<g>
			<path class="st1" d="M84,1v83H1V1H84 M85,0H0v85h85V0L85,0z"/>
		</g>
	</g>
	<g>
		<rect x="340.5" y="85.5" class="st2" width="84" height="84"/>
		<g>
			<path class="st1" d="M424,86v83h-83V86H424 M425,85h-85v85h85V85L425,85z"/>
		</g>
	</g>
	<g>
		<rect x="255.5" y="170.5" class="st2" width="84" height="84"/>
		<g>
			<path class="st1" d="M339,171v83h-83v-83H339 M340,170h-85v85h85V170L340,170z"/>
		</g>
	</g>
	<g>
		<rect x="170.5" y="255.5" class="st2" width="84" height="84"/>
		<g>
			<path class="st1" d="M254,256v83h-83v-83H254 M255,255h-85v85h85V255L255,255z"/>
		</g>
	</g>
	<g>
		<rect x="85.5" y="340.5" class="st2" width="84" height="84"/>
		<g>
			<path class="st1" d="M169,341v83H86v-83H169 M170,340H85v85h85V340L170,340z"/>
		</g>
	</g>
	<g>
		<rect x="170.5" y="0.5" class="st3" width="84" height="84"/>
		<g>
			<path class="st1" d="M254,1v83h-83V1H254 M255,0h-85v85h85V0L255,0z"/>
		</g>
	</g>
	<g>
		<rect x="85.5" y="85.5" class="st3" width="84" height="84"/>
		<g>
			<path class="st1" d="M169,86v83H86V86H169 M170,85H85v85h85V85L170,85z"/>
		</g>
	</g>
	<g>
		<rect x="0.5" y="170.5" class="st3" width="84" height="84"/>
		<g>
			<path class="st1" d="M84,171v83H1v-83H84 M85,170H0v85h85V170L85,170z"/>
		</g>
	</g>
	<g>
		<rect x="340.5" y="255.5" class="st3" width="84" height="84"/>
		<g>
			<path class="st1" d="M424,256v83h-83v-83H424 M425,255h-85v85h85V255L425,255z"/>
		</g>
	</g>
	<g>
		<rect x="255.5" y="340.5" class="st3" width="84" height="84"/>
		<g>
			<path class="st1" d="M339,341v83h-83v-83H339 M340,340h-85v85h85V340L340,340z"/>
		</g>
	</g>
	<g>
		<rect x="340.5" y="340.5" class="st4" width="84" height="84"/>
		<g>
			<path class="st1" d="M424,341v83h-83v-83H424 M425,340h-85v85h85V340L425,340z"/>
		</g>
	</g>
	<g>
		<rect x="0.5" y="255.5" class="st4" width="84" height="84"/>
		<g>
			<path class="st1" d="M84,256v83H1v-83H84 M85,255H0v85h85V255L85,255z"/>
		</g>
	</g>
	<g>
		<rect x="85.5" y="170.5" class="st4" width="84" height="84"/>
		<g>
			<path class="st1" d="M169,171v83H86v-83H169 M170,170H85v85h85V170L170,170z"/>
		</g>
	</g>
	<g>
		<rect x="170.5" y="85.5" class="st4" width="84" height="84"/>
		<g>
			<path class="st1" d="M254,86v83h-83V86H254 M255,85h-85v85h85V85L255,85z"/>
		</g>
	</g>
	<g>
		<rect x="255.5" y="0.5" class="st4" width="84" height="84"/>
		<g>
			<path class="st1" d="M339,1v83h-83V1H339 M340,0h-85v85h85V0L340,0z"/>
		</g>
	</g>
	<g>
		<rect x="340.5" y="0.5" class="st5" width="84" height="84"/>
		<g>
			<path class="st1" d="M424,1v83h-83V1H424 M425,0h-85v85h85V0L425,0z"/>
		</g>
	</g>
	<g>
		<rect x="255.5" y="85.5" class="st5" width="84" height="84"/>
		<g>
			<path class="st1" d="M339,86v83h-83V86H339 M340,85h-85v85h85V85L340,85z"/>
		</g>
	</g>
	<g>
		<rect x="170.5" y="170.5" class="st5" width="84" height="84"/>
		<g>
			<path class="st1" d="M254,171v83h-83v-83H254 M255,170h-85v85h85V170L255,170z"/>
		</g>
	</g>
	<g>
		<rect x="85.5" y="255.5" class="st5" width="84" height="84"/>
		<g>
			<path class="st1" d="M169,256v83H86v-83H169 M170,255H85v85h85V255L170,255z"/>
		</g>
	</g>
	<g>
		<rect x="0.5" y="340.5" class="st5" width="84" height="84"/>
		<g>
			<path class="st1" d="M84,341v83H1v-83H84 M85,340H0v85h85V340L85,340z"/>
		</g>
	</g>
</g>
<g id="Layer_2">
	<g>
		<rect x="369" y="29" class="st0" width="27.1" height="27.1"/>
		<g>
			<path class="st1" d="M395.5,29.5v26.1h-26.1V29.5H395.5 M396.5,28.5h-28.1v28.1h28.1V28.5L396.5,28.5z"/>
		</g>
	</g>
	<g>
		<rect x="284" y="29" class="st3" width="27.1" height="27.1"/>
		<g>
			<path class="st1" d="M310.5,29.5v26.1h-26.1V29.5H310.5 M311.5,28.5h-28.1v28.1h28.1V28.5L311.5,28.5z"/>
		</g>
	</g>
	<g>
		<rect x="199" y="29" class="st4" width="27.1" height="27.1"/>
		<g>
			<path class="st1" d="M225.5,29.5v26.1h-26.1V29.5H225.5 M226.5,28.5h-28.1v28.1h28.1V28.5L226.5,28.5z"/>
		</g>
	</g>
	<g>
		<rect x="114" y="29" class="st5" width="27.1" height="27.1"/>
		<g>
			<path class="st1" d="M140.5,29.5v26.1h-26.1V29.5H140.5 M141.5,28.5h-28.1v28.1h28.1V28.5L141.5,28.5z"/>
		</g>
	</g>
	<g>
		<rect x="28.8" y="28.8" class="st2" width="27.3" height="27.3"/>
		<path class="st1" d="M55.7,29.3v26.3H29.3V29.3H55.7 M56.7,28.3H28.3v28.3h28.3V28.3L56.7,28.3z"/>
	</g>
	<g>
		<rect x="199" y="114" class="st0" width="27.1" height="27.1"/>
		<g>
			<path class="st1" d="M225.5,114.5v26.1h-26.1v-26.1H225.5 M226.5,113.5h-28.1v28.1h28.1V113.5L226.5,113.5z"/>
		</g>
	</g>
	<g>
		<rect x="114" y="114" class="st3" width="27.1" height="27.1"/>
		<g>
			<path class="st1" d="M140.5,114.5v26.1h-26.1v-26.1H140.5 M141.5,113.5h-28.1v28.1h28.1V113.5L141.5,113.5z"/>
		</g>
	</g>
	<g>
		<rect x="29" y="114" class="st4" width="27.1" height="27.1"/>
		<g>
			<path class="st1" d="M55.5,114.5v26.1H29.5v-26.1H55.5 M56.5,113.5H28.5v28.1h28.1V113.5L56.5,113.5z"/>
		</g>
	</g>
	<g>
		<rect x="369" y="114" class="st5" width="27.1" height="27.1"/>
		<g>
			<path class="st1" d="M395.5,114.5v26.1h-26.1v-26.1H395.5 M396.5,113.5h-28.1v28.1h28.1V113.5L396.5,113.5z"/>
		</g>
	</g>
	<g>
		<rect x="283.8" y="113.8" class="st2" width="27.3" height="27.3"/>
		<path class="st1" d="M310.7,114.3v26.3h-26.3v-26.3H310.7 M311.7,113.3h-28.3v28.3h28.3V113.3L311.7,113.3z"/>
	</g>
	<g>
		<rect x="29" y="199" class="st0" width="27.1" height="27.1"/>
		<g>
			<path class="st1" d="M55.5,199.5v26.1H29.5v-26.1H55.5 M56.5,198.5H28.5v28.1h28.1V198.5L56.5,198.5z"/>
		</g>
	</g>
	<g>
		<rect x="199" y="199" class="st5" width="27.1" height="27.1"/>
		<g>
			<path class="st1" d="M225.5,199.5v26.1h-26.1v-26.1H225.5 M226.5,198.5h-28.1v28.1h28.1V198.5L226.5,198.5z"/>
		</g>
	</g>
	<g>
		<rect x="113.8" y="198.8" class="st2" width="27.3" height="27.3"/>
		<path class="st1" d="M140.7,199.3v26.3h-26.3v-26.3H140.7 M141.7,198.3h-28.3v28.3h28.3V198.3L141.7,198.3z"/>
	</g>
	<g>
		<rect x="369" y="199" class="st3" width="27.1" height="27.1"/>
		<g>
			<path class="st1" d="M395.5,199.5v26.1h-26.1v-26.1H395.5 M396.5,198.5h-28.1v28.1h28.1V198.5L396.5,198.5z"/>
		</g>
	</g>
	<g>
		<rect x="284" y="199" class="st4" width="27.1" height="27.1"/>
		<g>
			<path class="st1" d="M310.5,199.5v26.1h-26.1v-26.1H310.5 M311.5,198.5h-28.1v28.1h28.1V198.5L311.5,198.5z"/>
		</g>
	</g>
	<g>
		<rect x="29" y="284" class="st5" width="27.1" height="27.1"/>
		<g>
			<path class="st1" d="M55.5,284.5v26.1H29.5v-26.1H55.5 M56.5,283.5H28.5v28.1h28.1V283.5L56.5,283.5z"/>
		</g>
	</g>
	<g>
		<rect x="199" y="284" class="st3" width="27.1" height="27.1"/>
		<g>
			<path class="st1" d="M225.5,284.5v26.1h-26.1v-26.1H225.5 M226.5,283.5h-28.1v28.1h28.1V283.5L226.5,283.5z"/>
		</g>
	</g>
	<g>
		<rect x="114" y="284" class="st4" width="27.1" height="27.1"/>
		<g>
			<path class="st1" d="M140.5,284.5v26.1h-26.1v-26.1H140.5 M141.5,283.5h-28.1v28.1h28.1V283.5L141.5,283.5z"/>
		</g>
	</g>
	<g>
		<rect x="284" y="284" class="st0" width="27.1" height="27.1"/>
		<g>
			<path class="st1" d="M310.5,284.5v26.1h-26.1v-26.1H310.5 M311.5,283.5h-28.1v28.1h28.1V283.5L311.5,283.5z"/>
		</g>
	</g>
	<g>
		<rect x="368.8" y="283.8" class="st2" width="27.3" height="27.3"/>
		<path class="st1" d="M395.7,284.3v26.3h-26.3v-26.3H395.7 M396.7,283.3h-28.3v28.3h28.3V283.3L396.7,283.3z"/>
	</g>
	<g>
		<rect x="29" y="369" class="st3" width="27.1" height="27.1"/>
		<g>
			<path class="st1" d="M55.5,369.5v26.1H29.5v-26.1H55.5 M56.5,368.5H28.5v28.1h28.1V368.5L56.5,368.5z"/>
		</g>
	</g>
	<g>
		<rect x="114" y="369" class="st0" width="27.1" height="27.1"/>
		<g>
			<path class="st1" d="M140.5,369.5v26.1h-26.1v-26.1H140.5 M141.5,368.5h-28.1v28.1h28.1V368.5L141.5,368.5z"/>
		</g>
	</g>
	<g>
		<rect x="198.8" y="368.8" class="st2" width="27.3" height="27.3"/>
		<path class="st1" d="M225.7,369.3v26.3h-26.3v-26.3H225.7 M226.7,368.3h-28.3v28.3h28.3V368.3L226.7,368.3z"/>
	</g>
	<g>
		<rect x="284" y="369" class="st5" width="27.1" height="27.1"/>
		<g>
			<path class="st1" d="M310.5,369.5v26.1h-26.1v-26.1H310.5 M311.5,368.5h-28.1v28.1h28.1V368.5L311.5,368.5z"/>
		</g>
	</g>
	<g>
		<rect x="369" y="369" class="st4" width="27.1" height="27.1"/>
		<g>
			<path class="st1" d="M395.5,369.5v26.1h-26.1v-26.1H395.5 M396.5,368.5h-28.1v28.1h28.1V368.5L396.5,368.5z"/>
		</g>
	</g>
</g>
</svg>
